STARTFONT 2.1
COMMENT
COMMENT  Copyright (c) 2001, Poonlap Veerathanabutr
COMMENT
COMMENT  License to copy and distribute for both commercial and
COMMENT  non-commercial use is herby granted, provided this notice
COMMENT  is preserved.
COMMENT
COMMENT  Poonlap.Veerathanabutr@Japan.Sun.COM
COMMENT  Modified from thai8b.bdf. Emacs/Mule can use this font.
COMMENT
COMMENT  Produced with bdfedit, a tcl/tk font editing program
COMMENT  written by Thomas A. Fine
FONT -nectec-emacs-bold-r-normal--18-180-72-72-c-90-tis620-0
SIZE 18 72 72
FONTBOUNDINGBOX 18 18 -9 -3
STARTPROPERTIES 11
FOUNDRY "nectec"
FAMILY_NAME "emacs"
WEIGHT_NAME "bold"
SLANT "r"
SETWIDTH_NAME "normal"
SPACING "c"
CHARSET_REGISTRY "ISO-8859"
CHARSET_ENCODING "1"
COPYRIGHT "Copyright (C) 1999,2000 NECTEC, released under GPL license"
FONT_ASCENT  15
FONT_DESCENT 3
ENDPROPERTIES
CHARS 182
STARTCHAR SPACE
ENCODING 32
SWIDTH 500 0
DWIDTH 9 0
BBX 0 0 0 0
BITMAP
ENDCHAR
STARTCHAR EXCLAMATION
ENCODING 33
SWIDTH 500 0
DWIDTH 9 0
BBX 2 10 4 0
BITMAP
c0
c0
c0
c0
c0
c0
c0
00
c0
c0
ENDCHAR
STARTCHAR QUOTATION
ENCODING 34
SWIDTH 500 0
DWIDTH 9 0
BBX 6 4 2 7
BITMAP
fc
fc
6c
d8
ENDCHAR
STARTCHAR NUMBER
ENCODING 35
SWIDTH 500 0
DWIDTH 9 0
BBX 9 10 0 0
BITMAP
1b00
1b00
1b00
7f80
3600
3600
ff00
6c00
6c00
6c00
ENDCHAR
STARTCHAR DOLLAR
ENCODING 36
SWIDTH 500 0
DWIDTH 9 0
BBX 8 10 1 0
BITMAP
18
7e
db
d8
78
1e
1b
db
7e
18
ENDCHAR
STARTCHAR PERCENT
ENCODING 37
SWIDTH 500 0
DWIDTH 9 0
BBX 8 10 1 0
BITMAP
73
db
de
7c
1c
38
3e
7b
db
ce
ENDCHAR
STARTCHAR AMPERSAND
ENCODING 38
SWIDTH 500 0
DWIDTH 9 0
BBX 8 10 1 0
BITMAP
38
6c
6c
38
30
7b
cf
ce
ce
7b
ENDCHAR
STARTCHAR c27
ENCODING 39
SWIDTH 500 0
DWIDTH 9 0
BBX 3 4 3 7
BITMAP
e0
e0
60
c0
ENDCHAR
STARTCHAR LEFT
ENCODING 40
SWIDTH 500 0
DWIDTH 9 0
BBX 5 12 3 -1
BITMAP
18
30
60
60
c0
c0
c0
c0
60
60
30
18
ENDCHAR
STARTCHAR RIGHT
ENCODING 41
SWIDTH 500 0
DWIDTH 9 0
BBX 5 12 1 -1
BITMAP
c0
60
30
30
18
18
18
18
30
30
60
c0
ENDCHAR
STARTCHAR ASTERISK
ENCODING 42
SWIDTH 500 0
DWIDTH 9 0
BBX 8 7 1 1
BITMAP
18
db
7e
3c
7e
db
18
ENDCHAR
STARTCHAR PLUS
ENCODING 43
SWIDTH 500 0
DWIDTH 9 0
BBX 8 7 1 1
BITMAP
18
18
18
ff
18
18
18
ENDCHAR
STARTCHAR COMMA
ENCODING 44
SWIDTH 500 0
DWIDTH 9 0
BBX 3 4 3 -2
BITMAP
e0
e0
60
c0
ENDCHAR
STARTCHAR HYPHEN,
ENCODING 45
SWIDTH 500 0
DWIDTH 9 0
BBX 8 1 1 4
BITMAP
ff
ENDCHAR
STARTCHAR FULL
ENCODING 46
SWIDTH 500 0
DWIDTH 9 0
BBX 3 2 3 0
BITMAP
e0
e0
ENDCHAR
STARTCHAR c2f
ENCODING 47
SWIDTH 500 0
DWIDTH 9 0
BBX 8 12 1 -1
BITMAP
03
06
06
0c
0c
18
18
30
30
60
60
c0
ENDCHAR
STARTCHAR DIGIT
ENCODING 48
SWIDTH 500 0
DWIDTH 9 0
BBX 8 10 1 0
BITMAP
3c
66
66
c3
c3
c3
c3
66
66
3c
ENDCHAR
STARTCHAR DIGIT
ENCODING 49
SWIDTH 500 0
DWIDTH 9 0
BBX 6 10 2 0
BITMAP
30
70
f0
30
30
30
30
30
30
fc
ENDCHAR
STARTCHAR DIGIT
ENCODING 50
SWIDTH 500 0
DWIDTH 9 0
BBX 8 10 1 0
BITMAP
3c
66
c3
c3
06
0c
18
30
60
ff
ENDCHAR
STARTCHAR DIGIT
ENCODING 51
SWIDTH 500 0
DWIDTH 9 0
BBX 8 10 1 0
BITMAP
3c
66
c3
03
1e
06
03
c3
66
3c
ENDCHAR
STARTCHAR DIGIT
ENCODING 52
SWIDTH 500 0
DWIDTH 9 0
BBX 8 10 1 0
BITMAP
0c
1c
1c
3c
7c
6c
cc
ff
0c
0c
ENDCHAR
STARTCHAR DIGIT
ENCODING 53
SWIDTH 500 0
DWIDTH 9 0
BBX 8 10 1 0
BITMAP
fe
c0
c0
fc
c6
03
03
03
c6
7c
ENDCHAR
STARTCHAR DIGIT
ENCODING 54
SWIDTH 500 0
DWIDTH 9 0
BBX 8 10 1 0
BITMAP
1c
30
60
fc
e6
c3
c3
c3
66
3c
ENDCHAR
STARTCHAR DIGIT
ENCODING 55
SWIDTH 500 0
DWIDTH 9 0
BBX 8 10 1 0
BITMAP
ff
03
06
06
0c
0c
18
18
18
18
ENDCHAR
STARTCHAR DIGIT
ENCODING 56
SWIDTH 500 0
DWIDTH 9 0
BBX 8 10 1 0
BITMAP
3c
66
66
3c
66
c3
c3
c3
66
3c
ENDCHAR
STARTCHAR DIGIT
ENCODING 57
SWIDTH 500 0
DWIDTH 9 0
BBX 8 10 1 0
BITMAP
3c
66
c3
c3
c3
67
3f
06
0c
38
ENDCHAR
STARTCHAR COLON
ENCODING 58
SWIDTH 500 0
DWIDTH 9 0
BBX 3 7 3 0
BITMAP
e0
e0
00
00
00
e0
e0
ENDCHAR
STARTCHAR SEMICOLON
ENCODING 59
SWIDTH 500 0
DWIDTH 9 0
BBX 3 9 3 -2
BITMAP
e0
e0
00
00
00
e0
e0
60
c0
ENDCHAR
STARTCHAR LESS-THAN
ENCODING 60
SWIDTH 500 0
DWIDTH 9 0
BBX 6 9 2 0
BITMAP
0c
18
30
60
c0
60
30
18
0c
ENDCHAR
STARTCHAR EQUALS
ENCODING 61
SWIDTH 500 0
DWIDTH 9 0
BBX 8 5 1 2
BITMAP
ff
00
00
00
ff
ENDCHAR
STARTCHAR GREATER-THAN
ENCODING 62
SWIDTH 500 0
DWIDTH 9 0
BBX 6 9 1 0
BITMAP
c0
60
30
18
0c
18
30
60
c0
ENDCHAR
STARTCHAR QUESTION
ENCODING 63
SWIDTH 500 0
DWIDTH 9 0
BBX 8 10 1 0
BITMAP
3c
66
c3
c3
06
0c
18
18
00
18
ENDCHAR
STARTCHAR COMMERCIAL
ENCODING 64
SWIDTH 500 0
DWIDTH 9 0
BBX 8 10 1 0
BITMAP
3e
63
c3
df
f7
f3
f3
de
60
3f
ENDCHAR
STARTCHAR CAPITAL
ENCODING 65
SWIDTH 500 0
DWIDTH 9 0
BBX 8 10 1 0
BITMAP
3c
66
c3
c3
c3
ff
c3
c3
c3
c3
ENDCHAR
STARTCHAR CAPITAL
ENCODING 66
SWIDTH 500 0
DWIDTH 9 0
BBX 8 10 1 0
BITMAP
fc
c6
c3
c6
fc
c6
c3
c3
c3
fe
ENDCHAR
STARTCHAR CAPITAL
ENCODING 67
SWIDTH 500 0
DWIDTH 9 0
BBX 8 10 1 0
BITMAP
3c
66
c3
c0
c0
c0
c0
c3
66
3c
ENDCHAR
STARTCHAR CAPITAL
ENCODING 68
SWIDTH 500 0
DWIDTH 9 0
BBX 8 10 1 0
BITMAP
fc
c6
c3
c3
c3
c3
c3
c3
c6
fc
ENDCHAR
STARTCHAR CAPITAL
ENCODING 69
SWIDTH 500 0
DWIDTH 9 0
BBX 8 10 1 0
BITMAP
ff
c0
c0
c0
fe
c0
c0
c0
c0
ff
ENDCHAR
STARTCHAR CAPITAL
ENCODING 70
SWIDTH 500 0
DWIDTH 9 0
BBX 8 10 1 0
BITMAP
ff
c0
c0
c0
fe
c0
c0
c0
c0
c0
ENDCHAR
STARTCHAR CAPITAL
ENCODING 71
SWIDTH 500 0
DWIDTH 9 0
BBX 8 10 1 0
BITMAP
3c
66
c3
c0
c0
cf
c3
c3
67
3f
ENDCHAR
STARTCHAR CAPITAL
ENCODING 72
SWIDTH 500 0
DWIDTH 9 0
BBX 8 10 1 0
BITMAP
c3
c3
c3
c3
ff
c3
c3
c3
c3
c3
ENDCHAR
STARTCHAR CAPITAL
ENCODING 73
SWIDTH 500 0
DWIDTH 9 0
BBX 6 10 2 0
BITMAP
fc
30
30
30
30
30
30
30
30
fc
ENDCHAR
STARTCHAR CAPITAL
ENCODING 74
SWIDTH 500 0
DWIDTH 9 0
BBX 8 10 1 0
BITMAP
3f
0c
0c
0c
0c
0c
0c
cc
cc
78
ENDCHAR
STARTCHAR CAPITAL
ENCODING 75
SWIDTH 500 0
DWIDTH 9 0
BBX 8 10 1 0
BITMAP
c3
c6
cc
d8
f0
f0
d8
cc
c6
c3
ENDCHAR
STARTCHAR CAPITAL
ENCODING 76
SWIDTH 500 0
DWIDTH 9 0
BBX 8 10 1 0
BITMAP
c0
c0
c0
c0
c0
c0
c0
c0
c0
ff
ENDCHAR
STARTCHAR CAPITAL
ENCODING 77
SWIDTH 500 0
DWIDTH 9 0
BBX 8 10 1 0
BITMAP
c3
c3
e7
e7
ff
ff
db
db
c3
c3
ENDCHAR
STARTCHAR CAPITAL
ENCODING 78
SWIDTH 500 0
DWIDTH 9 0
BBX 8 10 1 0
BITMAP
c3
e3
e3
f3
db
db
cf
c7
c7
c3
ENDCHAR
STARTCHAR CAPITAL
ENCODING 79
SWIDTH 500 0
DWIDTH 9 0
BBX 8 10 1 0
BITMAP
3c
66
c3
c3
c3
c3
c3
c3
66
3c
ENDCHAR
STARTCHAR CAPITAL
ENCODING 80
SWIDTH 500 0
DWIDTH 9 0
BBX 8 10 1 0
BITMAP
fc
c6
c3
c3
c6
fc
c0
c0
c0
c0
ENDCHAR
STARTCHAR CAPITAL
ENCODING 81
SWIDTH 500 0
DWIDTH 9 0
BBX 8 10 1 0
BITMAP
3c
66
c3
c3
c3
c3
df
f7
76
3f
ENDCHAR
STARTCHAR CAPITAL
ENCODING 82
SWIDTH 500 0
DWIDTH 9 0
BBX 8 10 1 0
BITMAP
fc
c6
c3
c3
c6
fc
d8
cc
c6
c3
ENDCHAR
STARTCHAR CAPITAL
ENCODING 83
SWIDTH 500 0
DWIDTH 9 0
BBX 8 10 1 0
BITMAP
3c
66
c3
60
3c
06
c3
c3
66
3c
ENDCHAR
STARTCHAR CAPITAL
ENCODING 84
SWIDTH 500 0
DWIDTH 9 0
BBX 8 10 1 0
BITMAP
ff
18
18
18
18
18
18
18
18
18
ENDCHAR
STARTCHAR CAPITAL
ENCODING 85
SWIDTH 500 0
DWIDTH 9 0
BBX 8 10 1 0
BITMAP
c3
c3
c3
c3
c3
c3
c3
c3
66
3c
ENDCHAR
STARTCHAR CAPITAL
ENCODING 86
SWIDTH 500 0
DWIDTH 9 0
BBX 8 10 1 0
BITMAP
c3
c3
c3
66
66
3c
3c
3c
18
18
ENDCHAR
STARTCHAR CAPITAL
ENCODING 87
SWIDTH 500 0
DWIDTH 9 0
BBX 8 10 1 0
BITMAP
c3
c3
db
db
ff
ff
e7
e7
c3
c3
ENDCHAR
STARTCHAR CAPITAL
ENCODING 88
SWIDTH 500 0
DWIDTH 9 0
BBX 8 10 1 0
BITMAP
c3
66
66
3c
18
18
3c
66
66
c3
ENDCHAR
STARTCHAR CAPITAL
ENCODING 89
SWIDTH 500 0
DWIDTH 9 0
BBX 8 10 1 0
BITMAP
c3
c3
66
3c
3c
18
18
18
18
18
ENDCHAR
STARTCHAR CAPITAL
ENCODING 90
SWIDTH 500 0
DWIDTH 9 0
BBX 8 10 1 0
BITMAP
ff
03
06
0c
18
30
60
c0
c0
ff
ENDCHAR
STARTCHAR LEFT
ENCODING 91
SWIDTH 500 0
DWIDTH 9 0
BBX 4 12 4 -1
BITMAP
f0
c0
c0
c0
c0
c0
c0
c0
c0
c0
c0
f0
ENDCHAR
STARTCHAR REVERSE
ENCODING 92
SWIDTH 500 0
DWIDTH 9 0
BBX 8 12 1 -1
BITMAP
c0
60
60
30
30
18
18
0c
0c
06
06
03
ENDCHAR
STARTCHAR RIGHT
ENCODING 93
SWIDTH 500 0
DWIDTH 9 0
BBX 4 12 2 -1
BITMAP
f0
30
30
30
30
30
30
30
30
30
30
f0
ENDCHAR
STARTCHAR CIRCUMFLEX
ENCODING 94
SWIDTH 500 0
DWIDTH 9 0
BBX 6 3 2 9
BITMAP
30
78
cc
ENDCHAR
STARTCHAR LOW
ENCODING 95
SWIDTH 500 0
DWIDTH 9 0
BBX 8 1 1 -1
BITMAP
ff
ENDCHAR
STARTCHAR GRAVE
ENCODING 96
SWIDTH 500 0
DWIDTH 9 0
BBX 3 4 4 7
BITMAP
e0
e0
c0
60
ENDCHAR
STARTCHAR SMALL
ENCODING 97
SWIDTH 500 0
DWIDTH 9 0
BBX 8 7 1 0
BITMAP
7e
c7
03
7f
c3
c7
7b
ENDCHAR
STARTCHAR SMALL
ENCODING 98
SWIDTH 500 0
DWIDTH 9 0
BBX 8 10 1 0
BITMAP
c0
c0
c0
dc
e6
c3
c3
c3
e6
dc
ENDCHAR
STARTCHAR SMALL
ENCODING 99
SWIDTH 500 0
DWIDTH 9 0
BBX 8 7 1 0
BITMAP
3e
63
c0
c0
c0
63
3e
ENDCHAR
STARTCHAR SMALL
ENCODING 100
SWIDTH 500 0
DWIDTH 9 0
BBX 8 10 1 0
BITMAP
03
03
03
3b
67
c3
c3
c3
67
3b
ENDCHAR
STARTCHAR SMALL
ENCODING 101
SWIDTH 500 0
DWIDTH 9 0
BBX 8 7 1 0
BITMAP
7e
c3
c3
ff
c0
c3
7e
ENDCHAR
STARTCHAR SMALL
ENCODING 102
SWIDTH 500 0
DWIDTH 9 0
BBX 7 10 2 0
BITMAP
1c
36
30
30
fc
30
30
30
30
30
ENDCHAR
STARTCHAR SMALL
ENCODING 103
SWIDTH 500 0
DWIDTH 9 0
BBX 8 11 1 -3
BITMAP
03
3f
66
c3
66
3c
60
7e
c3
c3
7e
ENDCHAR
STARTCHAR SMALL
ENCODING 104
SWIDTH 500 0
DWIDTH 9 0
BBX 8 10 1 0
BITMAP
c0
c0
c0
dc
e6
c3
c3
c3
c3
c3
ENDCHAR
STARTCHAR SMALL
ENCODING 105
SWIDTH 500 0
DWIDTH 9 0
BBX 6 10 2 0
BITMAP
30
30
00
70
30
30
30
30
30
fc
ENDCHAR
STARTCHAR SMALL
ENCODING 106
SWIDTH 500 0
DWIDTH 9 0
BBX 5 13 1 -3
BITMAP
18
18
00
38
18
18
18
18
18
18
18
d8
70
ENDCHAR
STARTCHAR SMALL
ENCODING 107
SWIDTH 500 0
DWIDTH 9 0
BBX 8 10 1 0
BITMAP
c0
c0
c0
c6
cc
d8
f8
ec
c6
c3
ENDCHAR
STARTCHAR SMALL
ENCODING 108
SWIDTH 500 0
DWIDTH 9 0
BBX 6 10 2 0
BITMAP
70
30
30
30
30
30
30
30
30
fc
ENDCHAR
STARTCHAR SMALL
ENCODING 109
SWIDTH 500 0
DWIDTH 9 0
BBX 8 7 1 0
BITMAP
fe
db
db
db
db
db
db
ENDCHAR
STARTCHAR SMALL
ENCODING 110
SWIDTH 500 0
DWIDTH 9 0
BBX 8 7 1 0
BITMAP
de
e3
c3
c3
c3
c3
c3
ENDCHAR
STARTCHAR SMALL
ENCODING 111
SWIDTH 500 0
DWIDTH 9 0
BBX 8 7 1 0
BITMAP
3c
66
c3
c3
c3
66
3c
ENDCHAR
STARTCHAR c70
ENCODING 112
SWIDTH 500 0
DWIDTH 9 0
BBX 8 10 1 -3
BITMAP
dc
e6
c3
c3
c3
e6
dc
c0
c0
c0
ENDCHAR
STARTCHAR c71
ENCODING 113
SWIDTH 500 0
DWIDTH 9 0
BBX 8 10 1 -3
BITMAP
3b
67
c3
c3
c3
67
3b
03
03
03
ENDCHAR
STARTCHAR SMALL
ENCODING 114
SWIDTH 500 0
DWIDTH 9 0
BBX 8 7 1 0
BITMAP
de
f3
e0
c0
c0
c0
c0
ENDCHAR
STARTCHAR SMALL
ENCODING 115
SWIDTH 500 0
DWIDTH 9 0
BBX 8 7 1 0
BITMAP
7e
c3
c0
7e
03
c3
7e
ENDCHAR
STARTCHAR SMALL
ENCODING 116
SWIDTH 500 0
DWIDTH 9 0
BBX 7 9 2 0
BITMAP
30
30
fc
30
30
30
30
36
1c
ENDCHAR
STARTCHAR SMALL
ENCODING 117
SWIDTH 500 0
DWIDTH 9 0
BBX 8 7 1 0
BITMAP
c3
c3
c3
c3
c3
67
3b
ENDCHAR
STARTCHAR SMALL
ENCODING 118
SWIDTH 500 0
DWIDTH 9 0
BBX 8 7 1 0
BITMAP
c3
c3
66
66
3c
3c
18
ENDCHAR
STARTCHAR SMALL
ENCODING 119
SWIDTH 500 0
DWIDTH 9 0
BBX 8 7 1 0
BITMAP
c3
db
db
db
db
db
76
ENDCHAR
STARTCHAR SMALL
ENCODING 120
SWIDTH 500 0
DWIDTH 9 0
BBX 8 7 1 0
BITMAP
c3
66
3c
18
3c
66
c3
ENDCHAR
STARTCHAR SMALL
ENCODING 121
SWIDTH 500 0
DWIDTH 9 0
BBX 8 10 1 -3
BITMAP
c3
c3
c3
c3
c3
47
3b
03
06
7c
ENDCHAR
STARTCHAR SMALL
ENCODING 122
SWIDTH 500 0
DWIDTH 9 0
BBX 8 7 1 0
BITMAP
ff
06
0c
18
30
60
ff
ENDCHAR
STARTCHAR LEFT
ENCODING 123
SWIDTH 500 0
DWIDTH 9 0
BBX 4 12 3 -1
BITMAP
30
60
60
60
60
c0
c0
60
60
60
60
30
ENDCHAR
STARTCHAR VERTICAL
ENCODING 124
SWIDTH 500 0
DWIDTH 9 0
BBX 2 14 4 -2
BITMAP
c0
c0
c0
c0
c0
c0
c0
c0
c0
c0
c0
c0
c0
c0
ENDCHAR
STARTCHAR c7d
ENCODING 125
SWIDTH 500 0
DWIDTH 9 0
BBX 4 12 2 -1
BITMAP
c0
60
60
60
60
30
30
60
60
60
60
c0
ENDCHAR
STARTCHAR TILDE
ENCODING 126
SWIDTH 500 0
DWIDTH 9 0
BBX 8 3 1 7
BITMAP
70
db
0e
ENDCHAR
STARTCHAR ca1
ENCODING 161
SWIDTH 500 0
DWIDTH 9 0
BBX 7 8 2 0
BITMAP
7c
c6
66
c6
c6
c6
c6
c6
ENDCHAR
STARTCHAR KHO_KHAI
ENCODING 162
SWIDTH 500 0
DWIDTH 9 0
BBX 6 8 3 0
BITMAP
6c
fc
7c
3c
6c
cc
cc
78
ENDCHAR
STARTCHAR ca3
ENCODING 163
SWIDTH 500 0
DWIDTH 9 0
BBX 7 8 2 0
BITMAP
56
fe
6e
1e
36
66
66
3c
ENDCHAR
STARTCHAR KHO_KHWAI
ENCODING 164
SWIDTH 500 0
DWIDTH 9 0
BBX 8 8 1 0
BITMAP
3c
66
db
ff
fb
e3
c3
c3
ENDCHAR
STARTCHAR ca5
ENCODING 165
SWIDTH 500 0
DWIDTH 9 0
BBX 8 8 1 0
BITMAP
76
db
db
ff
fb
e3
c3
c3
ENDCHAR
STARTCHAR ca6
ENCODING 166
SWIDTH 500 0
DWIDTH 9 0
BBX 8 8 1 0
BITMAP
5b
ff
7f
1b
33
7b
ff
76
ENDCHAR
STARTCHAR NGO_NGU
ENCODING 167
SWIDTH 500 0
DWIDTH 9 0
BBX 7 8 2 0
BITMAP
0c
1e
0e
c6
66
36
1e
0c
ENDCHAR
STARTCHAR CHO_CHAN
ENCODING 168
SWIDTH 500 0
DWIDTH 9 0
BBX 8 8 1 0
BITMAP
3c
66
db
3f
1f
07
03
03
ENDCHAR
STARTCHAR CHO_CHING
ENCODING 169
SWIDTH 500 0
DWIDTH 9 0
BBX 8 8 1 0
BITMAP
7c
c6
63
f3
73
3f
3b
33
ENDCHAR
STARTCHAR CHO_CHANG
ENCODING 170
SWIDTH 500 0
DWIDTH 9 0
BBX 6 9 3 0
BITMAP
0c
6c
fc
78
3c
6c
cc
cc
78
ENDCHAR
STARTCHAR cab
ENCODING 171
SWIDTH 500 0
DWIDTH 9 0
BBX 7 9 2 0
BITMAP
06
5e
fe
6c
1e
36
66
66
3c
ENDCHAR
STARTCHAR CHO_CHOE
ENCODING 172
SWIDTH 500 0
DWIDTH 9 0
BBX 8 8 1 0
BITMAP
7b
cf
6f
cf
cf
ff
ef
7b
ENDCHAR
STARTCHAR YO_YING
ENCODING 173
SWIDTH 500 0
DWIDTH 9 0
BBX 8 11 1 -3
BITMAP
7b
cf
6f
cf
cf
ef
ff
6f
00
0f
0e
ENDCHAR
STARTCHAR cae
ENCODING 174
SWIDTH 500 0
DWIDTH 9 0
BBX 8 11 1 -3
BITMAP
1e
33
1b
33
33
73
f3
67
1f
3f
1b
ENDCHAR
STARTCHAR caf
ENCODING 175
SWIDTH 500 0
DWIDTH 9 0
BBX 8 11 1 -3
BITMAP
1e
33
1b
33
33
73
f3
7b
73
ff
6b
ENDCHAR
STARTCHAR cb0
ENCODING 176
SWIDTH 500 0
DWIDTH 9 0
BBX 8 11 1 -3
BITMAP
3f
60
fe
1b
3f
1f
07
1b
77
ff
6b
ENDCHAR
STARTCHAR THO_NANGMONTHO
ENCODING 177
SWIDTH 500 0
DWIDTH 9 0
BBX 8 8 1 0
BITMAP
5e
ff
6f
1b
33
63
63
63
ENDCHAR
STARTCHAR THO_PHUTHAO
ENCODING 178
SWIDTH 500 0
DWIDTH 9 0
BBX 8 8 1 0
BITMAP
db
ff
cf
ff
ff
ff
ef
db
ENDCHAR
STARTCHAR NO_NEN
ENCODING 179
SWIDTH 500 0
DWIDTH 9 0
BBX 8 8 1 0
BITMAP
7b
cf
6f
cf
cf
ee
ff
6f
ENDCHAR
STARTCHAR cb4
ENCODING 180
SWIDTH 500 0
DWIDTH 9 0
BBX 8 8 1 0
BITMAP
3c
66
db
ff
db
f3
e3
c3
ENDCHAR
STARTCHAR cb5
ENCODING 181
SWIDTH 500 0
DWIDTH 9 0
BBX 8 8 1 0
BITMAP
76
db
db
ff
db
f3
e3
c3
ENDCHAR
STARTCHAR cb6
ENCODING 182
SWIDTH 500 0
DWIDTH 9 0
BBX 7 8 2 0
BITMAP
7c
c6
66
c6
c6
e6
f6
66
ENDCHAR
STARTCHAR THO_THAHAN
ENCODING 183
SWIDTH 500 0
DWIDTH 9 0
BBX 9 8 0 0
BITMAP
6700
fd80
7d80
3980
3980
3180
3180
3180
ENDCHAR
STARTCHAR THO_THONG
ENCODING 184
SWIDTH 500 0
DWIDTH 9 0
BBX 8 8 1 0
BITMAP
3f
60
fe
33
33
33
33
3e
ENDCHAR
STARTCHAR NO_NU
ENCODING 185
SWIDTH 500 0
DWIDTH 9 0
BBX 9 8 0 0
BITMAP
6300
f300
7300
3300
3300
3f80
3b80
3380
ENDCHAR
STARTCHAR BO_BAIMAI
ENCODING 186
SWIDTH 500 0
DWIDTH 9 0
BBX 9 8 0 0
BITMAP
6180
f180
7180
3180
3180
3180
3180
1f00
ENDCHAR
STARTCHAR cbb
ENCODING 187
SWIDTH 500 0
DWIDTH 9 0
BBX 9 11 0 0
BITMAP
0180
0180
0180
6180
f180
7180
3180
3180
3180
3180
1f00
ENDCHAR
STARTCHAR PHO_PHUNG
ENCODING 188
SWIDTH 500 0
DWIDTH 9 0
BBX 8 8 1 0
BITMAP
63
f3
e3
c3
db
db
db
7e
ENDCHAR
STARTCHAR cbd
ENCODING 189
SWIDTH 500 0
DWIDTH 9 0
BBX 8 11 1 0
BITMAP
03
03
03
63
f3
e3
c3
db
db
db
7e
ENDCHAR
STARTCHAR PHO_PHAN
ENCODING 190
SWIDTH 500 0
DWIDTH 9 0
BBX 9 8 0 0
BITMAP
6180
fd80
7d80
3d80
6d80
6d80
6d80
3f00
ENDCHAR
STARTCHAR cbf
ENCODING 191
SWIDTH 500 0
DWIDTH 9 0
BBX 9 11 0 0
BITMAP
0180
0180
0180
6180
fd80
7d80
3d80
6d80
6d80
6d80
3f00
ENDCHAR
STARTCHAR cc0
ENCODING 192
SWIDTH 500 0
DWIDTH 9 0
BBX 9 8 0 0
BITMAP
1f00
3180
1980
3180
3180
7180
f180
6180
ENDCHAR
STARTCHAR MO_MA
ENCODING 193
SWIDTH 500 0
DWIDTH 9 0
BBX 8 8 1 0
BITMAP
63
f3
73
33
33
7b
ff
76
ENDCHAR
STARTCHAR YO_YAK
ENCODING 194
SWIDTH 500 0
DWIDTH 9 0
BBX 7 8 2 0
BITMAP
76
fe
f6
c6
76
c6
c6
7c
ENDCHAR
STARTCHAR cc3
ENCODING 195
SWIDTH 500 0
DWIDTH 9 0
BBX 8 8 1 0
BITMAP
3f
60
fe
03
03
07
0f
06
ENDCHAR
STARTCHAR cc4
ENCODING 196
SWIDTH 500 0
DWIDTH 9 0
BBX 7 11 2 -3
BITMAP
7c
c6
66
c6
c6
e6
f6
66
06
06
06
ENDCHAR
STARTCHAR LO_LING
ENCODING 197
SWIDTH 500 0
DWIDTH 9 0
BBX 8 8 1 0
BITMAP
3c
66
c3
3b
6f
e7
f7
63
ENDCHAR
STARTCHAR cc6
ENCODING 198
SWIDTH 500 0
DWIDTH 9 0
BBX 9 11 0 -3
BITMAP
1f00
3180
1980
3180
3180
7180
f180
6180
0180
0180
0180
ENDCHAR
STARTCHAR WO_WAEN
ENCODING 199
SWIDTH 500 0
DWIDTH 9 0
BBX 8 8 1 0
BITMAP
3c
66
c3
03
03
07
0f
06
ENDCHAR
STARTCHAR cc8
ENCODING 200
SWIDTH 500 0
DWIDTH 9 0
BBX 8 9 1 0
BITMAP
03
3f
66
db
ff
fb
e3
c3
c3
ENDCHAR
STARTCHAR cc9
ENCODING 201
SWIDTH 500 0
DWIDTH 9 0
BBX 9 8 0 0
BITMAP
6180
f180
7780
3f80
3780
3180
3180
1f00
ENDCHAR
STARTCHAR cca
ENCODING 202
SWIDTH 500 0
DWIDTH 9 0
BBX 8 9 1 0
BITMAP
03
3f
66
c3
3b
6f
e7
f7
63
ENDCHAR
STARTCHAR HO_HIP
ENCODING 203
SWIDTH 500 0
DWIDTH 9 0
BBX 9 8 0 0
BITMAP
6300
f380
7700
3d80
3980
3980
3180
3180
ENDCHAR
STARTCHAR LO_CHULA
ENCODING 204
SWIDTH 500 0
DWIDTH 9 0
BBX 9 9 0 0
BITMAP
0780
6f00
f780
7180
3d80
6d80
6d80
6d80
3f00
ENDCHAR
STARTCHAR O_ANG
ENCODING 205
SWIDTH 500 0
DWIDTH 9 0
BBX 8 8 1 0
BITMAP
3c
66
c3
33
7b
73
63
3e
ENDCHAR
STARTCHAR cce
ENCODING 206
SWIDTH 500 0
DWIDTH 9 0
BBX 7 9 2 0
BITMAP
06
7e
cc
7e
66
f6
e6
c6
7c
ENDCHAR
STARTCHAR PAI_YAN_NOI
ENCODING 207
SWIDTH 500 0
DWIDTH 9 0
BBX 8 8 1 0
BITMAP
66
ff
7b
03
03
03
03
06
ENDCHAR
STARTCHAR SARA_A
ENCODING 208
SWIDTH 500 0
DWIDTH 9 0
BBX 7 7 1 1
BITMAP
66
fc
78
00
66
fc
78
ENDCHAR
STARTCHAR MAI_HAN-AKAT
ENCODING 209
SWIDTH 500 0
DWIDTH 9 0
BBX 6 3 3 9
BITMAP
64
fc
78
ENDCHAR
STARTCHAR SARA_AA
ENCODING 210
SWIDTH 500 0
DWIDTH 9 0
BBX 7 8 1 0
BITMAP
7c
c6
06
06
06
06
06
06
ENDCHAR
STARTCHAR SARA_AM
ENCODING 211
SWIDTH 500 0
DWIDTH 9 0
BBX 8 11 0 0
BITMAP
60
f0
60
3e
63
03
03
03
03
03
03
ENDCHAR
STARTCHAR SARA_I
ENCODING 212
SWIDTH 500 0
DWIDTH 9 0
BBX 7 3 2 9
BITMAP
7c
c6
fe
ENDCHAR
STARTCHAR SARA_II
ENCODING 213
SWIDTH 500 0
DWIDTH 9 0
BBX 7 4 2 9
BITMAP
06
7e
c6
fe
ENDCHAR
STARTCHAR SARA_UE
ENCODING 214
SWIDTH 500 0
DWIDTH 9 0
BBX 8 3 1 9
BITMAP
7e
cb
fe
ENDCHAR
STARTCHAR SARA_UEE
ENCODING 215
SWIDTH 500 0
DWIDTH 9 0
BBX 8 3 1 9
BITMAP
75
dd
ff
ENDCHAR
STARTCHAR SARA_U
ENCODING 216
SWIDTH 500 0
DWIDTH 9 0
BBX 3 3 6 -3
BITMAP
e0
e0
60
ENDCHAR
STARTCHAR SARA_UU
ENCODING 217
SWIDTH 500 0
DWIDTH 9 0
BBX 5 3 4 -3
BITMAP
d8
f8
78
ENDCHAR
STARTCHAR PHINTHU
ENCODING 218
SWIDTH 500 0
DWIDTH 9 0
BBX 3 2 4 -2
BITMAP
e0
e0
ENDCHAR
STARTCHAR BAHT
ENCODING 223
SWIDTH 500 0
DWIDTH 9 0
BBX 8 10 1 0
BITMAP
18
fe
7b
7b
7e
7b
7b
7b
fe
18
ENDCHAR
STARTCHAR SARA_E
ENCODING 224
SWIDTH 500 0
DWIDTH 9 0
BBX 4 8 4 0
BITMAP
c0
c0
c0
c0
c0
e0
f0
60
ENDCHAR
STARTCHAR SARA_AE
ENCODING 225
SWIDTH 500 0
DWIDTH 9 0
BBX 7 8 2 0
BITMAP
cc
cc
cc
cc
cc
ee
fe
66
ENDCHAR
STARTCHAR SARA_O
ENCODING 226
SWIDTH 500 0
DWIDTH 9 0
BBX 8 12 1 0
BITMAP
3f
60
f8
0c
0c
0c
0c
0c
0c
0e
0f
06
ENDCHAR
STARTCHAR SARA_MAI_MUAN
ENCODING 227
SWIDTH 500 0
DWIDTH 9 0
BBX 8 12 1 0
BITMAP
78
cc
ec
fc
6c
0c
0c
0c
0c
0e
0f
06
ENDCHAR
STARTCHAR SARA_MAI_MALAI
ENCODING 228
SWIDTH 500 0
DWIDTH 9 0
BBX 9 12 0 0
BITMAP
cc00
7e00
3600
0600
0600
0600
0600
0600
0600
0700
0780
0300
ENDCHAR
STARTCHAR LAK_KHANG_YAO
ENCODING 229
SWIDTH 500 0
DWIDTH 9 0
BBX 7 11 1 -3
BITMAP
7c
c6
06
06
06
06
06
06
06
06
06
ENDCHAR
STARTCHAR MAI_YAMOK
ENCODING 230
SWIDTH 500 0
DWIDTH 9 0
BBX 7 10 1 -2
BITMAP
5c
f6
66
06
06
06
06
06
06
0c
ENDCHAR
STARTCHAR MAI_TAI_KHU
ENCODING 231
SWIDTH 500 0
DWIDTH 9 0
BBX 7 3 2 9
BITMAP
fe
ac
fc
ENDCHAR
STARTCHAR MAI_EK
ENCODING 232
SWIDTH 500 0
DWIDTH 9 0
BBX 2 3 7 12
BITMAP
c0
c0
c0
ENDCHAR
STARTCHAR MAI_THO
ENCODING 233
SWIDTH 500 0
DWIDTH 9 0
BBX 5 3 4 12
BITMAP
e0
68
f0
ENDCHAR
STARTCHAR MAI_TRI
ENCODING 234
SWIDTH 500 0
DWIDTH 9 0
BBX 7 3 2 12
BITMAP
58
fe
6e
ENDCHAR
STARTCHAR MAI_CHATTAWA
ENCODING 235
SWIDTH 500 0
DWIDTH 9 0
BBX 4 3 5 12
BITMAP
60
f0
60
ENDCHAR
STARTCHAR THANTHAKHAT
ENCODING 236
SWIDTH 500 0
DWIDTH 9 0
BBX 4 3 5 12
BITMAP
30
e0
e0
ENDCHAR
STARTCHAR NIKKHAHIT
ENCODING 237
SWIDTH 500 0
DWIDTH 9 0
BBX 4 3 4 9
BITMAP
60
f0
60
ENDCHAR
STARTCHAR YAMAKKAN
ENCODING 238
SWIDTH 500 0
DWIDTH 9 0
BBX 5 3 4 9
BITMAP
f8
d0
d0
ENDCHAR
STARTCHAR FONGMAN
ENCODING 239
SWIDTH 500 0
DWIDTH 9 0
BBX 8 7 1 0
BITMAP
3c
66
db
ff
db
66
3c
ENDCHAR
STARTCHAR ZERO
ENCODING 240
SWIDTH 500 0
DWIDTH 9 0
BBX 8 7 1 0
BITMAP
3c
66
c3
c3
c3
66
3c
ENDCHAR
STARTCHAR ONE
ENCODING 241
SWIDTH 500 0
DWIDTH 9 0
BBX 8 7 1 0
BITMAP
3c
66
c3
f3
fb
fb
76
ENDCHAR
STARTCHAR TWO
ENCODING 242
SWIDTH 500 0
DWIDTH 9 0
BBX 9 8 0 0
BITMAP
c000
6f00
7f80
7d80
7f80
6d80
6180
3f00
ENDCHAR
STARTCHAR THREE
ENCODING 243
SWIDTH 500 0
DWIDTH 9 0
BBX 8 7 1 0
BITMAP
7e
db
db
f3
fb
fb
76
ENDCHAR
STARTCHAR FOUR
ENCODING 244
SWIDTH 500 0
DWIDTH 9 0
BBX 8 8 1 0
BITMAP
03
3e
60
cc
de
dc
cc
7f
ENDCHAR
STARTCHAR FIVE
ENCODING 245
SWIDTH 500 0
DWIDTH 9 0
BBX 8 9 1 0
BITMAP
1b
3f
1e
70
cc
de
dc
cc
7f
ENDCHAR
STARTCHAR SIX
ENCODING 246
SWIDTH 500 0
DWIDTH 9 0
BBX 8 8 1 0
BITMAP
c0
fc
66
03
1b
3f
3b
1e
ENDCHAR
STARTCHAR SEVEN
ENCODING 247
SWIDTH 500 0
DWIDTH 9 0
BBX 8 7 1 0
BITMAP
6f
fd
c7
f7
f7
f7
7f
ENDCHAR
STARTCHAR EIGHT
ENCODING 248
SWIDTH 500 0
DWIDTH 9 0
BBX 8 8 1 0
BITMAP
03
3e
60
c6
cf
df
db
7e
ENDCHAR
STARTCHAR NINE
ENCODING 249
SWIDTH 500 0
DWIDTH 9 0
BBX 8 8 1 0
BITMAP
03
7e
dc
dc
fc
fe
fe
73
ENDCHAR
STARTCHAR ANGKHANKHU
ENCODING 250
SWIDTH 500 0
DWIDTH 9 0
BBX 9 8 0 0
BITMAP
6580
ff80
7f80
0780
0780
0780
0780
0f00
ENDCHAR
STARTCHAR KHOMUT
ENCODING 251
SWIDTH 500 0
DWIDTH 9 0
BBX 8 8 1 0
BITMAP
60
f0
c0
ff
fe
f8
f0
60
ENDCHAR
ENDFONT
